<mxfile host="app.diagrams.net" agent="Mozilla/5.0 (Macintosh; Intel Mac OS X 10.15; rv:136.0) Gecko/20100101 Firefox/136.0" version="26.0.6" pages="2">
  <diagram name="Page-1" id="9c096ad6-e400-ecc8-3e38-643d2caac077">
    <mxGraphModel dx="1147" dy="642" grid="1" gridSize="10" guides="1" tooltips="1" connect="1" arrows="1" fold="1" page="1" pageScale="1.5" pageWidth="1169" pageHeight="826" background="none" math="0" shadow="0">
      <root>
        <mxCell id="0" style=";html=1;" />
        <mxCell id="1" style=";html=1;" parent="0" />
        <mxCell id="lpIxBr_pPzBKxI0cWHd--76" value="Monoliths build progress" style="rounded=0;whiteSpace=wrap;html=1;fillColor=#fff2cc;strokeColor=#d6b656;align=left;verticalAlign=top;" vertex="1" parent="1">
          <mxGeometry x="36.5" y="120" width="483.5" height="440" as="geometry" />
        </mxCell>
        <mxCell id="lpIxBr_pPzBKxI0cWHd--8" value="Build Progress" style="rounded=0;whiteSpace=wrap;html=1;verticalAlign=top;align=left;fillColor=#f5f5f5;strokeColor=#666666;fontColor=#333333;" vertex="1" parent="1">
          <mxGeometry x="1000" y="137.09000000000003" width="598" height="701" as="geometry" />
        </mxCell>
        <mxCell id="lpIxBr_pPzBKxI0cWHd--62" value="Monoliths build progress" style="rounded=0;whiteSpace=wrap;html=1;fillColor=#fff2cc;strokeColor=#d6b656;align=left;verticalAlign=top;" vertex="1" parent="1">
          <mxGeometry x="36.5" y="610" width="483.5" height="390" as="geometry" />
        </mxCell>
        <mxCell id="lpIxBr_pPzBKxI0cWHd--50" value="&amp;nbsp;&lt;font style=&quot;font-size: 10px;&quot;&gt;Backend service A&lt;/font&gt;" style="rounded=0;whiteSpace=wrap;html=1;fontSize=11;align=left;verticalAlign=top;spacing=0;labelPosition=center;verticalLabelPosition=middle;textDirection=ltr;spacingTop=-4;" vertex="1" parent="1">
          <mxGeometry x="50" y="654" width="200" height="70" as="geometry" />
        </mxCell>
        <mxCell id="lpIxBr_pPzBKxI0cWHd--51" value="&lt;div&gt;extract jars and classes&lt;/div&gt;&lt;div&gt;With Jib&lt;/div&gt;" style="rounded=0;orthogonalLoop=1;jettySize=auto;html=1;exitX=0.5;exitY=1;exitDx=0;exitDy=0;dashed=1;exitPerimeter=0;" edge="1" parent="1" source="sK1HNTu8ODEYKF35T3gy-25" target="lpIxBr_pPzBKxI0cWHd--50">
          <mxGeometry relative="1" as="geometry" />
        </mxCell>
        <mxCell id="lpIxBr_pPzBKxI0cWHd--9" value="Deployment Process" style="rounded=0;whiteSpace=wrap;html=1;verticalAlign=top;align=left;fillColor=#ffe6cc;strokeColor=#d79b00;" vertex="1" parent="1">
          <mxGeometry x="750" y="270" width="370" height="500" as="geometry" />
        </mxCell>
        <mxCell id="lpIxBr_pPzBKxI0cWHd--2" value="&amp;nbsp;On-premise Environment" style="rounded=0;whiteSpace=wrap;html=1;verticalAlign=top;align=left;fillColor=#d5e8d4;strokeColor=#82b366;" vertex="1" parent="1">
          <mxGeometry x="780" y="471.09" width="290" height="260" as="geometry" />
        </mxCell>
        <mxCell id="lpIxBr_pPzBKxI0cWHd--1" value="&amp;nbsp;Cloud Managed Environment" style="rounded=0;whiteSpace=wrap;html=1;verticalAlign=top;align=left;fillColor=#dae8fc;strokeColor=#6c8ebf;" vertex="1" parent="1">
          <mxGeometry x="780" y="300" width="290" height="140" as="geometry" />
        </mxCell>
        <mxCell id="sK1HNTu8ODEYKF35T3gy-8" value="&lt;div&gt;dockerize with caddy image&lt;/div&gt;" style="rounded=0;orthogonalLoop=1;jettySize=auto;html=1;" edge="1" parent="1" source="sK1HNTu8ODEYKF35T3gy-30" target="sK1HNTu8ODEYKF35T3gy-28">
          <mxGeometry relative="1" as="geometry">
            <mxPoint x="384" y="322" as="targetPoint" />
          </mxGeometry>
        </mxCell>
        <mxCell id="sK1HNTu8ODEYKF35T3gy-19" value="Frontend source" style="sketch=0;outlineConnect=0;fontColor=#232F3E;gradientColor=none;fillColor=#232F3D;strokeColor=none;dashed=0;verticalLabelPosition=bottom;verticalAlign=top;align=center;html=1;fontSize=10;fontStyle=0;aspect=fixed;pointerEvents=1;shape=mxgraph.aws4.source_code;direction=east;flipH=0;flipV=0;" vertex="1" parent="1">
          <mxGeometry x="140" y="149.99999999999997" width="33" height="45.16" as="geometry" />
        </mxCell>
        <mxCell id="sK1HNTu8ODEYKF35T3gy-20" value="&lt;div&gt;SpringBoot&lt;/div&gt;&lt;div&gt;Sources&lt;/div&gt;" style="sketch=0;outlineConnect=0;fontColor=#232F3E;gradientColor=none;fillColor=#232F3D;strokeColor=none;dashed=0;verticalLabelPosition=bottom;verticalAlign=top;align=center;html=1;fontSize=10;fontStyle=0;aspect=fixed;pointerEvents=1;shape=mxgraph.aws4.source_code;direction=east;flipH=0;flipV=0;" vertex="1" parent="1">
          <mxGeometry x="67" y="150" width="33" height="45.16" as="geometry" />
        </mxCell>
        <mxCell id="sK1HNTu8ODEYKF35T3gy-39" style="rounded=0;orthogonalLoop=1;jettySize=auto;html=1;fillColor=#1ba1e2;strokeColor=#006EAF;entryX=0;entryY=0.5;entryDx=0;entryDy=0;" edge="1" parent="1" source="sK1HNTu8ODEYKF35T3gy-25" target="lpIxBr_pPzBKxI0cWHd--5">
          <mxGeometry relative="1" as="geometry">
            <mxPoint x="780.0000000000002" y="366.0000000000001" as="targetPoint" />
          </mxGeometry>
        </mxCell>
        <mxCell id="sK1HNTu8ODEYKF35T3gy-25" value="backend&lt;div&gt;containers&lt;/div&gt;" style="html=1;whiteSpace=wrap;shape=isoCube2;backgroundOutline=1;isoAngle=15;verticalAlign=top;labelPosition=center;verticalLabelPosition=bottom;align=center;direction=east;flipH=0;flipV=0;" vertex="1" parent="1">
          <mxGeometry x="128" y="440" width="44" height="44" as="geometry" />
        </mxCell>
        <mxCell id="lpIxBr_pPzBKxI0cWHd--7" style="rounded=0;orthogonalLoop=1;jettySize=auto;html=1;entryX=0;entryY=0.5;entryDx=0;entryDy=0;" edge="1" parent="1" source="sK1HNTu8ODEYKF35T3gy-28" target="lpIxBr_pPzBKxI0cWHd--5">
          <mxGeometry relative="1" as="geometry" />
        </mxCell>
        <mxCell id="sK1HNTu8ODEYKF35T3gy-28" value="frontend&lt;div&gt;container&lt;/div&gt;" style="html=1;whiteSpace=wrap;shape=isoCube2;backgroundOutline=1;isoAngle=15;verticalAlign=top;labelPosition=center;verticalLabelPosition=bottom;align=center;direction=east;flipH=0;flipV=0;" vertex="1" parent="1">
          <mxGeometry x="421.5" y="294.50000000000006" width="44" height="44" as="geometry" />
        </mxCell>
        <mxCell id="sK1HNTu8ODEYKF35T3gy-31" value="npm build" style="edgeStyle=orthogonalEdgeStyle;rounded=0;orthogonalLoop=1;jettySize=auto;html=1;" edge="1" parent="1" source="sK1HNTu8ODEYKF35T3gy-19" target="sK1HNTu8ODEYKF35T3gy-30">
          <mxGeometry relative="1" as="geometry">
            <mxPoint x="144" y="322" as="sourcePoint" />
            <mxPoint x="250" y="302" as="targetPoint" />
          </mxGeometry>
        </mxCell>
        <mxCell id="lpIxBr_pPzBKxI0cWHd--66" value="extract static fils" style="rounded=0;orthogonalLoop=1;jettySize=auto;html=1;dashed=1;entryX=0.5;entryY=0;entryDx=0;entryDy=0;" edge="1" parent="1" source="sK1HNTu8ODEYKF35T3gy-28" target="lpIxBr_pPzBKxI0cWHd--69">
          <mxGeometry x="0.2248" relative="1" as="geometry">
            <mxPoint as="offset" />
          </mxGeometry>
        </mxCell>
        <mxCell id="sK1HNTu8ODEYKF35T3gy-30" value="Static files" style="shape=image;html=1;verticalAlign=top;verticalLabelPosition=bottom;labelBackgroundColor=none;imageAspect=0;aspect=fixed;image=https://cdn1.iconfinder.com/data/icons/bootstrap-vol-3/16/filetype-html-128.png;direction=east;flipH=0;flipV=0;fontSize=10;" vertex="1" parent="1">
          <mxGeometry x="140" y="300" width="33" height="33" as="geometry" />
        </mxCell>
        <mxCell id="sK1HNTu8ODEYKF35T3gy-35" value="&lt;div&gt;dockerize&lt;/div&gt;&lt;div&gt;with jre image&lt;/div&gt;" style="rounded=0;orthogonalLoop=1;jettySize=auto;html=1;" edge="1" parent="1" source="lpIxBr_pPzBKxI0cWHd--22" target="sK1HNTu8ODEYKF35T3gy-25">
          <mxGeometry relative="1" as="geometry">
            <mxPoint x="170" y="465" as="sourcePoint" />
          </mxGeometry>
        </mxCell>
        <mxCell id="sK1HNTu8ODEYKF35T3gy-38" value="&lt;div&gt;Treafik&lt;/div&gt;&lt;div&gt;Cofigurations&lt;/div&gt;" style="verticalLabelPosition=bottom;html=1;verticalAlign=top;align=center;strokeColor=none;fillColor=#00BEF2;shape=mxgraph.azure.cloud_services_configuration_file;pointerEvents=1;flipV=0;aspect=fixed;" vertex="1" parent="1">
          <mxGeometry x="435.25" y="920" width="24.75" height="33" as="geometry" />
        </mxCell>
        <mxCell id="sK1HNTu8ODEYKF35T3gy-41" value="&lt;div&gt;Kuberntes&lt;/div&gt;&lt;div&gt;Cluster&lt;/div&gt;" style="sketch=0;outlineConnect=0;fontColor=#232F3E;gradientColor=none;strokeColor=#ffffff;fillColor=#232F3E;dashed=0;verticalLabelPosition=bottom;verticalAlign=top;align=center;html=1;whiteSpace=wrap;fontSize=10;fontStyle=1;spacing=3;shape=mxgraph.aws4.productIcon;prIcon=mxgraph.aws4.eks;labelPosition=center;" vertex="1" parent="1">
          <mxGeometry x="930.0000000000002" y="348" width="44" height="44" as="geometry" />
        </mxCell>
        <mxCell id="sK1HNTu8ODEYKF35T3gy-44" value="microservice replacement" style="edgeStyle=orthogonalEdgeStyle;rounded=0;orthogonalLoop=1;jettySize=auto;html=1;fillColor=#1ba1e2;strokeColor=#006EAF;" edge="1" parent="1" source="lpIxBr_pPzBKxI0cWHd--5" target="sK1HNTu8ODEYKF35T3gy-41">
          <mxGeometry relative="1" as="geometry">
            <mxPoint x="899.9999921235021" y="362.521739130435" as="sourcePoint" />
          </mxGeometry>
        </mxCell>
        <mxCell id="lpIxBr_pPzBKxI0cWHd--3" value="&lt;div&gt;&lt;font style=&quot;font-size: 10px;&quot;&gt;Binaries:&lt;/font&gt;&lt;/div&gt;&lt;div&gt;&lt;font style=&quot;font-size: 10px;&quot;&gt;Caddy/Traefik/Supervisord&lt;/font&gt;&lt;/div&gt;" style="shape=image;html=1;verticalAlign=top;verticalLabelPosition=bottom;labelBackgroundColor=none;imageAspect=0;aspect=fixed;image=https://cdn0.iconfinder.com/data/icons/octicons/1024/file-binary-128.png" vertex="1" parent="1">
          <mxGeometry x="416" y="821" width="44" height="44" as="geometry" />
        </mxCell>
        <mxCell id="lpIxBr_pPzBKxI0cWHd--5" value="&lt;div&gt;Cloud&lt;/div&gt;&lt;div&gt;Docker Registry&lt;/div&gt;" style="sketch=0;html=1;verticalAlign=top;labelPosition=center;verticalLabelPosition=bottom;align=center;spacingTop=-6;fontSize=11;fontStyle=1;fontColor=#999999;shape=image;aspect=fixed;imageAspect=0;image=data:image/svg+xml,PHN2ZyB4bWxucz0iaHR0cDovL3d3dy53My5vcmcvMjAwMC9zdmciIGlkPSJzdmc4MjciIHZlcnNpb249IjEuMSIgdmlld0JveD0iMCAwIDIwNS41MTIyOCAxODAuNTE4MjUiIGhlaWdodD0iMTgwLjUxODI1bW0iIHdpZHRoPSIyMDUuNTEyMjhtbSI+JiN4YTsgICYjeGE7ICA8ZGVmcyBpZD0iZGVmczgyNCIvPiYjeGE7ICA8ZyB0cmFuc2Zvcm09InRyYW5zbGF0ZSgtNC42MDIwNzI4LC01Ni43NjcxMjYpIiBpZD0ibGF5ZXIxIj4mI3hhOyAgICA8cGF0aCBkPSJtIDE0Mi4zMDMzMiwyMDIuNTM2NzUgMjYuNjMwNzgsLTE0Ljc0MDkzIHYgLTI5LjExOTQ4IGwgLTI2LjYzMDc4LDE0Ljg2ODYzIHogbSAtNC44MzQ4OSwwIC0yNi42MzA3OCwtMTQuNzQwOTMgdiAtMjkuMTE5NDggbCAyNi42MzA3OCwxNC44Njg2MyB6IG0gLTI3LjM3NTc4LC01My4zNDI2NCAyNi42MzA3NywtMTQuNzQwOTMgViAxMDUuMzMzNyBsIC0yNi42MzA3NywxNC44Njg2MyB6IG0gLTQuODM0OSwwIC0yNi42MzA3NzcsLTE0Ljc0MDkzIFYgMTA1LjMzMzcgbCAyNi42MzA3NzcsMTQuODY4NjMgeiBtIC0yNy4zNzU3ODgsNTMuMzQyNjQgMjYuNjMwNzc4LC0xNC43NDA5MyB2IC0yOS4xMTk0OCBsIC0yNi42MzA3NzgsMTQuODY4NjMgeiBtIC00LjgzNDg5MywwIC0yNi42MzA3NzksLTE0Ljc0MDkzIHYgLTI5LjExOTQ4IGwgMjYuNjMwNzc5LDE0Ljg2ODYzIHogTSAyMTAuMTE0MzYsMTg1LjQ1NzQzIFYgMTA4LjU1NzM1IEwgMTg5LjY4MTczLDk2LjcxMDk4MSBWIDE5Ny4zMjgwMiBaIG0gLTIwNS41MTIyODcyLDAgViAxMDguNTU3MzUgTCAyNS4wMzQ2OTYsOTYuNzEwOTgxIFYgMTk3LjMyODAyIFoiIHN0eWxlPSJvcGFjaXR5OjE7ZmlsbDojMzM2N2Q2O2ZpbGwtb3BhY2l0eToxO3N0cm9rZTpub25lO3N0cm9rZS13aWR0aDowLjI2NDU4M3B4O3N0cm9rZS1saW5lY2FwOmJ1dHQ7c3Ryb2tlLWxpbmVqb2luOm1pdGVyO3N0cm9rZS1vcGFjaXR5OjEiIGlkPSJwYXRoOTY3LTAtNiIvPiYjeGE7ICAgIDxwYXRoIGQ9Im0gMTM5Ljc5MjI1LDE2OC4yODM3OSAtMjYuMDI5NjQsLTE0LjUxMjkzIDI2LjAyOTY0LC0xNC40MTkzIDI2LjIxNjg5LDE0LjQxOTMgeiBNIDEwNy41ODE1NywxMTQuOTQxMTUgODEuNTUxOTM0LDEwMC40MjgyMiAxMDcuNTgxNTcsODYuMDA4OTE4IDEzMy43OTg0NiwxMDAuNDI4MjIgWiBtIC0zMi4yMTA2ODUsNTMuMzQyNjQgLTI2LjAyOTYzNCwtMTQuNTEyOTMgMjYuMDI5NjM0LC0xNC40MTkzIDI2LjIxNjg5NSwxNC40MTkzIHogbSA4Ni43OTQ3MDUsNjkuMDAxNTkgNDcuOTQ4NzcsLTI3Ljc4NzQ2IHYgLTI0LjA0MDQ5IGwgLTQ3Ljk0ODc3LDI3Ljg1ODIyIHogTSAyMTAuMTE0MzYsODQuNTUyNTU3IDE2Mi4xNjU1OSw1Ni43NjcxMjYgdiAyMy45NjU5MjEgbCA0Ny45NDg3NywyNy44MjQzMDMgeiBNIDUyLjU1MDgzNSwyMzcuMjg1MzggNC42MDIwNzI4LDIwOS40OTc5MiBWIDE4NS40NTc0MyBMIDUyLjU1MDgzNSwyMTMuMzE1NjUgWiBNIDQuNjAyMDcyOCw4NC41NTI1NTcgNTIuNTUwODM1LDU2Ljc2NzEyNiBWIDgwLjczMzA0NyBMIDQuNjAyMDcyOCwxMDguNTU3MzUgWiIgc3R5bGU9Im9wYWNpdHk6MTtmaWxsOiM1Yzg1ZGU7ZmlsbC1vcGFjaXR5OjE7c3Ryb2tlOm5vbmU7c3Ryb2tlLXdpZHRoOjAuMjY0NTgzcHg7c3Ryb2tlLWxpbmVjYXA6YnV0dDtzdHJva2UtbGluZWpvaW46bWl0ZXI7c3Ryb2tlLW9wYWNpdHk6MSIgaWQ9InBhdGg5NjktOCIvPiYjeGE7ICA8L2c+JiN4YTs8L3N2Zz4=;" vertex="1" parent="1">
          <mxGeometry x="700" y="352.11" width="42" height="37" as="geometry" />
        </mxCell>
        <mxCell id="lpIxBr_pPzBKxI0cWHd--10" value="&lt;div&gt;Virtual Machines&lt;/div&gt;" style="image;html=1;image=img/lib/clip_art/computers/Server_Rack_128x128.png;labelBackgroundColor=none;" vertex="1" parent="1">
          <mxGeometry x="858" y="512" width="42" height="38" as="geometry" />
        </mxCell>
        <mxCell id="lpIxBr_pPzBKxI0cWHd--18" value="&lt;div&gt;traffics&lt;/div&gt;" style="rounded=0;orthogonalLoop=1;jettySize=auto;html=1;fillColor=#1ba1e2;strokeColor=#006EAF;" edge="1" parent="1" source="lpIxBr_pPzBKxI0cWHd--14" target="lpIxBr_pPzBKxI0cWHd--10">
          <mxGeometry relative="1" as="geometry" />
        </mxCell>
        <mxCell id="lpIxBr_pPzBKxI0cWHd--20" value="traffics" style="rounded=0;orthogonalLoop=1;jettySize=auto;html=1;fillColor=#1ba1e2;strokeColor=#006EAF;" edge="1" parent="1" source="lpIxBr_pPzBKxI0cWHd--14" target="lpIxBr_pPzBKxI0cWHd--19">
          <mxGeometry relative="1" as="geometry" />
        </mxCell>
        <mxCell id="lpIxBr_pPzBKxI0cWHd--14" value="ELB" style="image;html=1;image=img/lib/clip_art/networking/Switch_128x128.png" vertex="1" parent="1">
          <mxGeometry x="1044" y="540" width="44" height="44" as="geometry" />
        </mxCell>
        <mxCell id="lpIxBr_pPzBKxI0cWHd--17" style="rounded=0;orthogonalLoop=1;jettySize=auto;html=1;fillColor=#1ba1e2;strokeColor=#006EAF;" edge="1" parent="1" source="lpIxBr_pPzBKxI0cWHd--16" target="lpIxBr_pPzBKxI0cWHd--14">
          <mxGeometry relative="1" as="geometry" />
        </mxCell>
        <mxCell id="lpIxBr_pPzBKxI0cWHd--33" style="rounded=0;orthogonalLoop=1;jettySize=auto;html=1;entryX=1;entryY=0.5;entryDx=0;entryDy=0;fillColor=#1ba1e2;strokeColor=#006EAF;" edge="1" parent="1" source="lpIxBr_pPzBKxI0cWHd--16" target="lpIxBr_pPzBKxI0cWHd--32">
          <mxGeometry relative="1" as="geometry" />
        </mxCell>
        <mxCell id="lpIxBr_pPzBKxI0cWHd--16" value="&lt;div&gt;Users&lt;/div&gt;" style="points=[[0.35,0,0],[0.98,0.51,0],[1,0.71,0],[0.67,1,0],[0,0.795,0],[0,0.65,0]];verticalLabelPosition=bottom;sketch=0;html=1;verticalAlign=top;aspect=fixed;align=center;pointerEvents=1;shape=mxgraph.cisco19.user;fillColor=#005073;strokeColor=none;" vertex="1" parent="1">
          <mxGeometry x="1230" y="443.09" width="44" height="44" as="geometry" />
        </mxCell>
        <mxCell id="lpIxBr_pPzBKxI0cWHd--19" value="&lt;div&gt;Virtual Machines&lt;/div&gt;" style="image;html=1;image=img/lib/clip_art/computers/Server_Rack_128x128.png;labelBackgroundColor=none;" vertex="1" parent="1">
          <mxGeometry x="858" y="592" width="42" height="38" as="geometry" />
        </mxCell>
        <mxCell id="lpIxBr_pPzBKxI0cWHd--35" style="edgeStyle=orthogonalEdgeStyle;rounded=0;orthogonalLoop=1;jettySize=auto;html=1;entryX=0;entryY=0.5;entryDx=0;entryDy=0;" edge="1" parent="1" source="lpIxBr_pPzBKxI0cWHd--21" target="lpIxBr_pPzBKxI0cWHd--34">
          <mxGeometry relative="1" as="geometry" />
        </mxCell>
        <mxCell id="lpIxBr_pPzBKxI0cWHd--21" value="monoliths&lt;div&gt;containers&lt;/div&gt;" style="html=1;whiteSpace=wrap;shape=isoCube2;backgroundOutline=1;isoAngle=15;verticalAlign=top;labelPosition=center;verticalLabelPosition=bottom;align=center;direction=east;flipH=0;flipV=0;" vertex="1" parent="1">
          <mxGeometry x="560" y="680" width="44" height="44" as="geometry" />
        </mxCell>
        <mxCell id="lpIxBr_pPzBKxI0cWHd--23" value="&lt;div&gt;mvn&lt;/div&gt;&lt;div&gt;package&lt;/div&gt;" style="edgeStyle=orthogonalEdgeStyle;rounded=0;orthogonalLoop=1;jettySize=auto;html=1;" edge="1" parent="1" source="sK1HNTu8ODEYKF35T3gy-20" target="lpIxBr_pPzBKxI0cWHd--22">
          <mxGeometry relative="1" as="geometry">
            <mxPoint x="144" y="442" as="sourcePoint" />
            <mxPoint x="245" y="440.08695652173924" as="targetPoint" />
          </mxGeometry>
        </mxCell>
        <mxCell id="lpIxBr_pPzBKxI0cWHd--22" value="Fat jars" style="shape=image;html=1;verticalAlign=top;verticalLabelPosition=bottom;labelBackgroundColor=none;imageAspect=0;aspect=fixed;image=https://cdn3.iconfinder.com/data/icons/dompicon-glyph-file-format-2/256/file-jar-format-type-128.png;fontSize=10;" vertex="1" parent="1">
          <mxGeometry x="67" y="300" width="33" height="33" as="geometry" />
        </mxCell>
        <mxCell id="lpIxBr_pPzBKxI0cWHd--38" value="Traffics" style="edgeStyle=orthogonalEdgeStyle;rounded=0;orthogonalLoop=1;jettySize=auto;html=1;fillColor=#1ba1e2;strokeColor=#006EAF;" edge="1" parent="1" source="lpIxBr_pPzBKxI0cWHd--32" target="sK1HNTu8ODEYKF35T3gy-41">
          <mxGeometry relative="1" as="geometry" />
        </mxCell>
        <mxCell id="lpIxBr_pPzBKxI0cWHd--32" value="ELB" style="image;html=1;image=img/lib/clip_art/networking/Switch_128x128.png" vertex="1" parent="1">
          <mxGeometry x="1044" y="348" width="44" height="44" as="geometry" />
        </mxCell>
        <mxCell id="lpIxBr_pPzBKxI0cWHd--36" style="edgeStyle=orthogonalEdgeStyle;rounded=0;orthogonalLoop=1;jettySize=auto;html=1;entryX=0;entryY=0.5;entryDx=0;entryDy=0;" edge="1" parent="1" source="lpIxBr_pPzBKxI0cWHd--34" target="lpIxBr_pPzBKxI0cWHd--10">
          <mxGeometry relative="1" as="geometry">
            <Array as="points" />
          </mxGeometry>
        </mxCell>
        <mxCell id="lpIxBr_pPzBKxI0cWHd--37" style="edgeStyle=orthogonalEdgeStyle;rounded=0;orthogonalLoop=1;jettySize=auto;html=1;" edge="1" parent="1" source="lpIxBr_pPzBKxI0cWHd--34" target="lpIxBr_pPzBKxI0cWHd--19">
          <mxGeometry relative="1" as="geometry" />
        </mxCell>
        <mxCell id="lpIxBr_pPzBKxI0cWHd--34" value="&lt;div&gt;Self-hosted&lt;/div&gt;&lt;div&gt;Docker Registry&lt;/div&gt;" style="sketch=0;html=1;verticalAlign=top;labelPosition=center;verticalLabelPosition=bottom;align=center;spacingTop=-6;fontSize=11;fontStyle=1;fontColor=#999999;shape=image;aspect=fixed;imageAspect=0;image=data:image/svg+xml,PHN2ZyB4bWxucz0iaHR0cDovL3d3dy53My5vcmcvMjAwMC9zdmciIGlkPSJzdmc4MjciIHZlcnNpb249IjEuMSIgdmlld0JveD0iMCAwIDIwNS41MTIyOCAxODAuNTE4MjUiIGhlaWdodD0iMTgwLjUxODI1bW0iIHdpZHRoPSIyMDUuNTEyMjhtbSI+JiN4YTsgICYjeGE7ICA8ZGVmcyBpZD0iZGVmczgyNCIvPiYjeGE7ICA8ZyB0cmFuc2Zvcm09InRyYW5zbGF0ZSgtNC42MDIwNzI4LC01Ni43NjcxMjYpIiBpZD0ibGF5ZXIxIj4mI3hhOyAgICA8cGF0aCBkPSJtIDE0Mi4zMDMzMiwyMDIuNTM2NzUgMjYuNjMwNzgsLTE0Ljc0MDkzIHYgLTI5LjExOTQ4IGwgLTI2LjYzMDc4LDE0Ljg2ODYzIHogbSAtNC44MzQ4OSwwIC0yNi42MzA3OCwtMTQuNzQwOTMgdiAtMjkuMTE5NDggbCAyNi42MzA3OCwxNC44Njg2MyB6IG0gLTI3LjM3NTc4LC01My4zNDI2NCAyNi42MzA3NywtMTQuNzQwOTMgViAxMDUuMzMzNyBsIC0yNi42MzA3NywxNC44Njg2MyB6IG0gLTQuODM0OSwwIC0yNi42MzA3NzcsLTE0Ljc0MDkzIFYgMTA1LjMzMzcgbCAyNi42MzA3NzcsMTQuODY4NjMgeiBtIC0yNy4zNzU3ODgsNTMuMzQyNjQgMjYuNjMwNzc4LC0xNC43NDA5MyB2IC0yOS4xMTk0OCBsIC0yNi42MzA3NzgsMTQuODY4NjMgeiBtIC00LjgzNDg5MywwIC0yNi42MzA3NzksLTE0Ljc0MDkzIHYgLTI5LjExOTQ4IGwgMjYuNjMwNzc5LDE0Ljg2ODYzIHogTSAyMTAuMTE0MzYsMTg1LjQ1NzQzIFYgMTA4LjU1NzM1IEwgMTg5LjY4MTczLDk2LjcxMDk4MSBWIDE5Ny4zMjgwMiBaIG0gLTIwNS41MTIyODcyLDAgViAxMDguNTU3MzUgTCAyNS4wMzQ2OTYsOTYuNzEwOTgxIFYgMTk3LjMyODAyIFoiIHN0eWxlPSJvcGFjaXR5OjE7ZmlsbDojMzM2N2Q2O2ZpbGwtb3BhY2l0eToxO3N0cm9rZTpub25lO3N0cm9rZS13aWR0aDowLjI2NDU4M3B4O3N0cm9rZS1saW5lY2FwOmJ1dHQ7c3Ryb2tlLWxpbmVqb2luOm1pdGVyO3N0cm9rZS1vcGFjaXR5OjEiIGlkPSJwYXRoOTY3LTAtNiIvPiYjeGE7ICAgIDxwYXRoIGQ9Im0gMTM5Ljc5MjI1LDE2OC4yODM3OSAtMjYuMDI5NjQsLTE0LjUxMjkzIDI2LjAyOTY0LC0xNC40MTkzIDI2LjIxNjg5LDE0LjQxOTMgeiBNIDEwNy41ODE1NywxMTQuOTQxMTUgODEuNTUxOTM0LDEwMC40MjgyMiAxMDcuNTgxNTcsODYuMDA4OTE4IDEzMy43OTg0NiwxMDAuNDI4MjIgWiBtIC0zMi4yMTA2ODUsNTMuMzQyNjQgLTI2LjAyOTYzNCwtMTQuNTEyOTMgMjYuMDI5NjM0LC0xNC40MTkzIDI2LjIxNjg5NSwxNC40MTkzIHogbSA4Ni43OTQ3MDUsNjkuMDAxNTkgNDcuOTQ4NzcsLTI3Ljc4NzQ2IHYgLTI0LjA0MDQ5IGwgLTQ3Ljk0ODc3LDI3Ljg1ODIyIHogTSAyMTAuMTE0MzYsODQuNTUyNTU3IDE2Mi4xNjU1OSw1Ni43NjcxMjYgdiAyMy45NjU5MjEgbCA0Ny45NDg3NywyNy44MjQzMDMgeiBNIDUyLjU1MDgzNSwyMzcuMjg1MzggNC42MDIwNzI4LDIwOS40OTc5MiBWIDE4NS40NTc0MyBMIDUyLjU1MDgzNSwyMTMuMzE1NjUgWiBNIDQuNjAyMDcyOCw4NC41NTI1NTcgNTIuNTUwODM1LDU2Ljc2NzEyNiBWIDgwLjczMzA0NyBMIDQuNjAyMDcyOCwxMDguNTU3MzUgWiIgc3R5bGU9Im9wYWNpdHk6MTtmaWxsOiM1Yzg1ZGU7ZmlsbC1vcGFjaXR5OjE7c3Ryb2tlOm5vbmU7c3Ryb2tlLXdpZHRoOjAuMjY0NTgzcHg7c3Ryb2tlLWxpbmVjYXA6YnV0dDtzdHJva2UtbGluZWpvaW46bWl0ZXI7c3Ryb2tlLW9wYWNpdHk6MSIgaWQ9InBhdGg5NjktOCIvPiYjeGE7ICA8L2c+JiN4YTs8L3N2Zz4=;" vertex="1" parent="1">
          <mxGeometry x="700" y="583" width="42" height="37" as="geometry" />
        </mxCell>
        <mxCell id="lpIxBr_pPzBKxI0cWHd--46" value="&lt;div&gt;symbol link resolving&lt;/div&gt;&lt;div&gt;via checksum&lt;/div&gt;" style="rounded=0;orthogonalLoop=1;jettySize=auto;html=1;labelBackgroundColor=default;" edge="1" parent="1" source="lpIxBr_pPzBKxI0cWHd--40" target="lpIxBr_pPzBKxI0cWHd--42">
          <mxGeometry x="0.28" y="11" relative="1" as="geometry">
            <mxPoint as="offset" />
          </mxGeometry>
        </mxCell>
        <mxCell id="lpIxBr_pPzBKxI0cWHd--42" value="&lt;div&gt;all libraries jars&lt;/div&gt;&lt;div&gt;with sha1sum name&lt;/div&gt;" style="shape=image;html=1;verticalAlign=top;verticalLabelPosition=bottom;labelBackgroundColor=none;imageAspect=0;aspect=fixed;image=https://cdn3.iconfinder.com/data/icons/dompicon-glyph-file-format-2/256/file-jar-format-type-128.png;fontSize=11;flipV=0;" vertex="1" parent="1">
          <mxGeometry x="427" y="737" width="33" height="33" as="geometry" />
        </mxCell>
        <mxCell id="lpIxBr_pPzBKxI0cWHd--43" value="&lt;div&gt;business code&lt;/div&gt;" style="sketch=0;outlineConnect=0;fontColor=#232F3E;gradientColor=none;fillColor=#232F3D;strokeColor=none;dashed=0;verticalLabelPosition=bottom;verticalAlign=top;align=center;html=1;fontSize=10;fontStyle=0;aspect=fixed;pointerEvents=1;shape=mxgraph.aws4.folder;flipV=0;" vertex="1" parent="1">
          <mxGeometry x="80" y="672" width="33" height="30.05" as="geometry" />
        </mxCell>
        <mxCell id="lpIxBr_pPzBKxI0cWHd--49" value="" style="group;aspect=fixed;fontSize=8;" vertex="1" connectable="0" parent="1">
          <mxGeometry x="173" y="669.05" width="33" height="33" as="geometry" />
        </mxCell>
        <mxCell id="lpIxBr_pPzBKxI0cWHd--39" value="" style="shape=image;html=1;verticalAlign=top;verticalLabelPosition=bottom;labelBackgroundColor=#ffffff;imageAspect=0;aspect=fixed;image=https://cdn2.iconfinder.com/data/icons/crystalproject/128x128/filesystems/link.png" vertex="1" parent="lpIxBr_pPzBKxI0cWHd--49">
          <mxGeometry width="33" height="33" as="geometry" />
        </mxCell>
        <mxCell id="lpIxBr_pPzBKxI0cWHd--40" value="&lt;div&gt;&lt;font style=&quot;font-size: 10px;&quot;&gt;Thrid libs as symbol links&lt;/font&gt;&lt;/div&gt;" style="shape=image;html=1;verticalAlign=top;verticalLabelPosition=bottom;labelBackgroundColor=none;imageAspect=0;image=https://cdn3.iconfinder.com/data/icons/dompicon-glyph-file-format-2/256/file-jar-format-type-128.png;fontSize=11;flipV=0;" vertex="1" parent="lpIxBr_pPzBKxI0cWHd--49">
          <mxGeometry width="33" height="33" as="geometry" />
        </mxCell>
        <mxCell id="lpIxBr_pPzBKxI0cWHd--63" style="edgeStyle=orthogonalEdgeStyle;rounded=0;orthogonalLoop=1;jettySize=auto;html=1;entryX=0;entryY=0.5;entryDx=0;entryDy=0;entryPerimeter=0;" edge="1" parent="1" source="lpIxBr_pPzBKxI0cWHd--42" target="lpIxBr_pPzBKxI0cWHd--21">
          <mxGeometry relative="1" as="geometry" />
        </mxCell>
        <mxCell id="lpIxBr_pPzBKxI0cWHd--64" style="edgeStyle=orthogonalEdgeStyle;rounded=0;orthogonalLoop=1;jettySize=auto;html=1;entryX=0;entryY=0.5;entryDx=0;entryDy=0;entryPerimeter=0;" edge="1" parent="1" source="lpIxBr_pPzBKxI0cWHd--3" target="lpIxBr_pPzBKxI0cWHd--21">
          <mxGeometry relative="1" as="geometry" />
        </mxCell>
        <mxCell id="lpIxBr_pPzBKxI0cWHd--69" value="&lt;font style=&quot;font-size: 10px;&quot;&gt;Static files&lt;/font&gt;" style="shape=image;html=1;verticalAlign=top;verticalLabelPosition=bottom;labelBackgroundColor=none;imageAspect=0;aspect=fixed;image=https://cdn1.iconfinder.com/data/icons/bootstrap-vol-3/16/filetype-html-128.png;direction=east;flipH=0;flipV=0;" vertex="1" parent="1">
          <mxGeometry x="427" y="647" width="33" height="33" as="geometry" />
        </mxCell>
        <mxCell id="lpIxBr_pPzBKxI0cWHd--70" style="edgeStyle=orthogonalEdgeStyle;rounded=0;orthogonalLoop=1;jettySize=auto;html=1;entryX=0;entryY=0.5;entryDx=0;entryDy=0;entryPerimeter=0;" edge="1" parent="1" source="lpIxBr_pPzBKxI0cWHd--69" target="lpIxBr_pPzBKxI0cWHd--21">
          <mxGeometry relative="1" as="geometry" />
        </mxCell>
        <mxCell id="lpIxBr_pPzBKxI0cWHd--73" style="edgeStyle=orthogonalEdgeStyle;rounded=0;orthogonalLoop=1;jettySize=auto;html=1;entryX=0;entryY=0.5;entryDx=0;entryDy=0;entryPerimeter=0;" edge="1" parent="1" source="sK1HNTu8ODEYKF35T3gy-38" target="lpIxBr_pPzBKxI0cWHd--21">
          <mxGeometry relative="1" as="geometry" />
        </mxCell>
      </root>
    </mxGraphModel>
  </diagram>
  <diagram id="Ql2A5z9pJcaB9xJnfUm-" name="Page-2">
    <mxGraphModel grid="1" page="1" gridSize="10" guides="1" tooltips="1" connect="1" arrows="1" fold="1" pageScale="1" pageWidth="850" pageHeight="1100" math="0" shadow="0">
      <root>
        <mxCell id="0" />
        <mxCell id="1" parent="0" />
      </root>
    </mxGraphModel>
  </diagram>
</mxfile>
